<svg width="61" height="32" viewBox="0 0 61 32" xmlns="http://www.w3.org/2000/svg"><title>Group</title><g fill="none" fill-rule="evenodd"><path d="M38.062 13.937a4.82 4.82 0 0 0-2.755-4.35A4.818 4.818 0 0 0 30.5 5a4.818 4.818 0 0 0-4.807 4.587 4.818 4.818 0 0 0-2.756 4.35 4.82 4.82 0 0 0 2.937 4.432l4.008 8.244a.687.687 0 0 0 1.238 0l4.008-8.244a4.82 4.82 0 0 0 2.937-4.432h-.003zm-4.812 3.438h-5.5a3.442 3.442 0 0 1-3.438-3.438 3.442 3.442 0 0 1 4.583-3.242.688.688 0 1 0 .458-1.296 4.811 4.811 0 0 0-2.23-.233 3.443 3.443 0 0 1 3.375-2.791 3.44 3.44 0 0 1 2.562 5.73.687.687 0 1 0 1.024.915 4.804 4.804 0 0 0 1.059-1.95 3.446 3.446 0 0 1 1.541 2.867 3.441 3.441 0 0 1-3.437 3.438h.003z" fill="#272727" fill-rule="nonzero"/><path stroke="#000" d="M.5.5h60v31H.5z"/></g></svg>