<?xml version="1.0" encoding="UTF-8"?>
<svg width="61px" height="32px" viewBox="0 0 61 32" version="1.1" xmlns="http://www.w3.org/2000/svg" xmlns:xlink="http://www.w3.org/1999/xlink">
    <!-- Generator: Sketch 43.2 (39069) - http://www.bohemiancoding.com/sketch -->
    <title>Group</title>
    <desc>Created with Sketch.</desc>
    <defs></defs>
    <g id="Page-1" stroke="none" stroke-width="1" fill="none" fill-rule="evenodd">
        <g id="Group">
            <path d="M38.061989,13.9373393 C38.0598821,12.0770012 36.9875142,10.3839014 35.3065386,9.58691751 C35.1882907,7.03771336 33.0777037,5 30.499625,5 C27.9215464,5 25.8109593,7.03771336 25.6927115,9.58691751 C24.011273,10.3833782 22.9386972,12.0768063 22.937261,13.9373393 C22.937261,15.9255535 24.1499892,17.6360228 25.8742082,18.3688846 L29.8822611,26.6132363 C29.997131,26.8504129 30.2374705,27.0010551 30.501,27.0010551 C30.7645295,27.0010551 31.004869,26.8504129 31.1197389,26.6132363 L35.1277918,18.3688846 C36.9064595,17.6138237 38.0623966,15.8696359 38.064739,13.9373393 L38.061989,13.9373393 Z M33.2495756,17.3747775 L27.7496745,17.3747775 C25.8549585,17.3747775 24.3122363,15.8320552 24.3122363,13.9373393 C24.3137414,12.8220237 24.8556313,11.7765906 25.7661272,11.1324413 C26.6766232,10.4882921 27.842818,10.3253053 28.8950289,10.6951476 C29.1266445,10.7769376 29.3843005,10.7289493 29.5709406,10.5692593 C29.7575806,10.4095693 29.8448495,10.1624384 29.799874,9.92095845 C29.7548984,9.67947846 29.5845112,9.48033592 29.3528956,9.3985459 C28.6381709,9.14651288 27.8740148,9.06689365 27.1226858,9.16617508 C27.434694,7.54771955 28.849996,6.37742913 30.49825,6.37497527 C31.8527541,6.37744172 33.0797433,7.1744963 33.6325849,8.41104535 C34.1854265,9.6475944 33.9612113,11.0934595 33.059829,12.1044972 C32.8850616,12.2857636 32.8233711,12.5480689 32.8990245,12.7882307 C32.9746779,13.0283925 33.1755698,13.2079817 33.4226755,13.2563536 C33.6697813,13.3047256 33.923561,13.2141402 34.0841856,13.0202308 C34.5888015,12.4564909 34.949045,11.786878 35.1429165,11.0691409 C36.1045187,11.7068333 36.6831147,12.7835069 36.6842638,13.9373393 C36.6842638,15.8320552 35.1429165,17.3747775 33.2468256,17.3747775 L33.2495756,17.3747775 Z" id="Shape" fill="#272727" fill-rule="nonzero"></path>
            <rect id="Rectangle" stroke="#000000" x="0.5" y="0.5" width="60" height="31"></rect>
        </g>
    </g>
</svg>